# xmcd CD database file
#
# Track frame offsets:
#	150
#	38740
#	59452
#	87771
#	111686
#	148786
#	176773
#	185913
#	210490
#	229931
#
# Disc length: 3403 seconds
#
# Revision: 0
# Processed by: cddbd v1.5.1PL2 Copyright (c) Steve Scherf et al.
# Submitted via: CDex 1.51
#
DISCID=970d490a
DTITLE=村松健 - 88+3
DYEAR=2005
DGENRE=New Age
TTITLE0=約束の渚
TTITLE1=あけもどろの月〜夜明けの窓ベから
TTITLE2=誰も知らない島へ
TTITLE3=光のワルツ〜水中バージョン〜
TTITLE4=ハイ・コントラスト〜海沿いの街で
TTITLE5=Southwestward 南西の彼方へ
TTITLE6=麦わら帽子の忘れもの
TTITLE7=時を越える風のように
TTITLE8=あがれ世ぬはる加那(奄美シマウタ)
TTITLE9=船の別れ
EXTD=YEAR: 2005
EXTT0=
EXTT1=
EXTT2=
EXTT3=
EXTT4=
EXTT5=
EXTT6=
EXTT7=
EXTT8=
EXTT9=
PLAYORDER=
